<svg preserveAspectRatio="none" width="100%" height="100%" overflow="visible" style="display: block;" viewBox="0 0 14 14" fill="none" xmlns="http://www.w3.org/2000/svg">
<g id="SVG">
<path id="Vector" d="M9 3.5C9 2.39543 8.10457 1.5 7 1.5C5.89543 1.5 5 2.39543 5 3.5V6.5C5 7.60457 5.89543 8.5 7 8.5C8.10457 8.5 9 7.60457 9 6.5V3.5Z" stroke="var(--stroke-0, #9FC5FF)" stroke-width="1.3"/>
<path id="Vector_2" d="M3 7C3 8.06087 3.42143 9.07828 4.17157 9.82843C4.92172 10.5786 5.93913 11 7 11M7 11C8.06087 11 9.07828 10.5786 9.82843 9.82843C10.5786 9.07828 11 8.06087 11 7M7 11V12.5" stroke="var(--stroke-0, #9FC5FF)" stroke-width="1.3" stroke-linecap="round"/>
</g>
</svg>
