<svg width="289" height="342" viewBox="0 0 289 342" fill="none" xmlns="http://www.w3.org/2000/svg">
<mask id="mask0_38_5" style="mask-type:alpha" maskUnits="userSpaceOnUse" x="5" y="23" width="278" height="295">
<path opacity="0.01" d="M236.545 33.6001C243.465 37.6037 247.584 45.2085 249.028 55.6571C250.472 66.103 249.229 79.3244 245.496 94.4398C238.029 124.666 220.627 162.36 195.046 200.344C169.464 238.327 140.57 269.373 114.551 288.865C101.54 298.612 89.2699 305.453 78.511 308.839C67.7492 312.225 58.569 312.135 51.6496 308.131C44.7301 304.128 40.6111 296.523 39.167 286.074C37.7234 275.628 38.965 262.407 42.6986 247.291C50.1648 217.064 67.5674 179.37 93.1491 141.386C118.731 103.403 147.624 72.358 173.643 52.8661C186.655 43.1188 198.925 36.2782 209.684 32.8927C220.446 29.5064 229.626 29.5965 236.545 33.6001Z" stroke="#7EE5FF" stroke-width="0.98481"/>
<path opacity="0.0204082" d="M233.573 32.7226C240.762 36.7224 245.21 44.349 247.031 54.8319C248.852 65.3133 248.033 78.5907 244.742 93.7781C238.16 124.149 221.717 162.054 196.958 200.28C172.199 238.505 143.836 269.777 118.01 289.44C105.096 299.273 92.8378 306.185 82.001 309.623C71.1629 313.062 61.8091 313.008 54.621 309.009C47.433 305.009 42.9844 297.382 41.1632 286.899C39.3424 276.418 40.1617 263.141 43.453 247.953C50.0348 217.582 66.4779 179.677 91.2367 141.452C115.996 103.226 144.359 71.9543 170.185 52.2913C183.099 42.4586 195.357 35.5461 206.194 32.1079C217.032 28.6693 226.385 28.7229 233.573 32.7226Z" stroke="#7EE5FF" stroke-width="0.98481"/>
<path opacity="0.0408163" d="M230.591 31.8961C238.049 35.8841 242.83 43.5239 245.031 54.0318C247.231 64.54 246.836 77.8639 243.989 93.1138C238.296 123.61 222.817 161.706 198.884 200.159C174.951 238.613 147.12 270.104 121.487 289.939C108.67 299.858 96.4232 306.845 85.5074 310.34C74.5918 313.835 65.063 313.823 57.6046 309.835C50.146 305.847 45.3641 298.207 43.1638 287.699C40.9635 277.191 41.3584 263.867 44.2053 248.617C49.8983 218.121 65.3779 180.025 89.3108 141.571C113.244 103.118 141.075 71.6264 166.707 51.7916C179.525 41.8731 191.771 34.8861 202.687 31.391C213.603 27.8959 223.132 27.9081 230.591 31.8961Z" stroke="#7EE5FF" stroke-width="0.98481"/>
<path opacity="0.0612245" d="M227.6 31.1216C235.331 35.09 240.447 42.7346 243.028 53.2595C245.61 63.7852 245.642 77.1453 243.241 92.4478C238.44 123.05 223.927 161.319 200.822 199.985C177.717 238.652 150.418 270.357 124.978 290.363C112.256 300.368 100.021 307.43 89.0251 310.986C78.0301 314.542 68.3245 314.577 60.594 310.609C52.8637 306.641 47.7479 298.996 45.1667 288.472C42.5852 277.946 42.5532 264.586 44.9539 249.283C49.7548 218.681 64.2678 180.413 87.3727 141.746C110.478 103.08 137.777 71.3746 163.217 51.3676C175.939 41.3633 188.174 34.3006 199.17 30.7448C210.165 27.1894 219.87 27.1534 227.6 31.1216Z" stroke="#7EE5FF" stroke-width="0.98481"/>
<path opacity="0.0816327" d="M224.608 30.4017C232.611 34.3428 238.064 41.9831 241.028 52.5157C243.992 63.05 244.451 76.4369 242.498 91.7822C238.591 122.471 225.046 160.892 202.769 199.757C180.493 238.621 153.726 270.532 128.477 290.711C115.851 300.801 103.626 307.942 92.549 311.563C81.4736 315.182 71.5911 315.27 63.5874 311.329C55.5838 307.388 50.1302 299.748 47.1666 289.216C44.2027 278.681 43.7434 265.295 45.6969 249.949C49.6036 219.261 63.149 180.84 85.4253 141.975C107.702 103.11 134.469 71.1994 159.718 51.0203C172.343 40.9301 184.569 33.7893 195.646 30.1689C206.721 26.5491 216.604 26.4606 224.608 30.4017Z" stroke="#7EE5FF" stroke-width="0.98481"/>
<path opacity="0.102041" d="M221.616 29.7371C229.894 33.6432 235.685 41.2702 239.031 51.8015C242.379 62.3354 243.267 75.7401 241.761 91.1186C238.749 121.873 226.172 160.427 204.724 199.474C183.276 238.522 157.04 270.631 131.981 290.982C119.45 301.158 107.233 308.377 96.0738 312.066C84.917 315.753 74.8563 315.9 66.5786 311.994C58.3009 308.088 52.5099 300.461 49.1633 289.929C45.816 279.395 44.9273 265.991 46.4331 250.613C49.4447 219.858 62.0222 181.304 83.4703 142.256C104.918 103.209 131.154 71.1009 156.214 50.7501C168.744 40.574 180.961 33.3536 192.121 29.6652C203.278 25.9777 213.338 25.8311 221.616 29.7371Z" stroke="#7EE5FF" stroke-width="0.98481"/>
<path opacity="0.122449" d="M218.631 29.1294C227.183 32.9932 233.313 40.5985 237.043 51.12C240.774 61.6444 242.091 75.0558 241.033 90.4573C238.916 121.259 227.307 159.926 206.685 199.14C186.064 238.355 160.356 270.653 135.484 291.175C123.047 301.436 110.839 308.737 99.5963 312.497C88.3568 316.256 78.117 316.466 69.5646 312.602C61.0121 308.738 54.8815 301.133 51.1513 290.611C47.4203 280.087 46.1035 266.675 47.1618 251.274C49.2783 220.472 60.888 181.806 81.5095 142.591C102.131 103.376 127.838 71.0781 152.711 50.5565C165.147 40.2954 177.356 32.9942 188.598 29.2344C199.838 25.4755 210.078 25.2657 218.631 29.1294Z" stroke="#7EE5FF" stroke-width="0.98481"/>
<path opacity="0.142857" d="M215.655 28.5788C224.483 32.3927 230.952 39.9676 235.065 50.4706C239.18 60.9767 240.926 74.3863 240.314 89.8016C239.092 120.631 228.447 159.39 208.649 198.756C188.852 238.122 163.67 270.6 138.983 291.291C126.639 301.637 114.436 309.021 103.109 312.855C91.7858 316.688 81.3674 316.966 72.5399 313.152C63.7122 309.338 57.242 301.764 53.1283 291.261C49.0135 280.755 47.2688 267.345 47.8802 251.93C49.103 221.101 59.7476 182.342 79.5452 142.976C99.3429 103.61 124.524 71.1319 149.212 50.4406C161.556 40.0947 173.758 32.7109 185.085 28.8763C196.408 25.043 206.827 24.7648 215.655 28.5788Z" stroke="#7EE5FF" stroke-width="0.98481"/>
<path opacity="0.163265" d="M212.694 28.0863C230.901 35.6009 239.94 58.2667 239.608 89.1508C239.276 119.988 229.593 158.82 210.615 198.321C191.637 237.822 166.978 270.472 142.473 291.331C117.93 312.222 93.7071 321.159 75.5006 313.645C57.2942 306.13 48.2549 283.465 48.5869 252.58C48.9185 221.743 58.6016 182.912 77.5795 143.411C96.5575 103.91 121.217 71.2595 145.722 50.4C170.265 29.5088 194.488 20.5716 212.694 28.0863Z" stroke="#7EE5FF" stroke-width="0.98481"/>
<path opacity="0.183673" d="M209.752 27.652C228.507 35.0385 238.357 57.6398 238.914 88.5077C239.47 119.333 230.744 158.217 212.58 197.838C194.417 237.458 170.275 270.269 145.948 291.295C121.588 312.349 97.1973 321.465 78.4424 314.078C59.6878 306.692 49.8373 284.091 49.2806 253.223C48.7247 222.397 57.451 183.514 75.6143 143.894C93.7779 104.274 117.919 71.4615 142.246 50.4357C166.606 29.3812 190.997 20.2657 209.752 27.652Z" stroke="#7EE5FF" stroke-width="0.98481"/>
<path opacity="0.204082" d="M206.834 27.2766C226.136 34.5219 236.795 57.0401 238.235 87.8733C239.674 118.669 231.899 157.585 214.543 197.308C197.188 237.031 173.558 269.995 149.406 291.185C125.224 312.401 100.664 321.7 81.3615 314.454C62.0588 307.209 51.4002 284.691 49.9596 253.858C48.5208 223.062 56.2958 184.147 73.6513 144.424C91.0069 104.701 114.637 71.7358 138.789 50.546C162.971 29.3302 187.531 20.0313 206.834 27.2766Z" stroke="#7EE5FF" stroke-width="0.98481"/>
<path opacity="0.22449" d="M203.942 26.9592C223.791 34.0507 235.256 56.4682 237.574 87.2484C239.89 117.995 233.057 156.923 216.502 196.733C199.947 236.542 176.822 269.651 152.841 291.003C128.833 312.377 104.101 321.863 84.252 314.772C64.403 307.68 52.9392 285.263 50.6207 254.483C48.3048 223.736 55.1374 184.807 71.6927 144.997C88.2479 105.188 111.373 72.08 135.354 50.7286C159.362 29.3541 184.093 19.8679 203.942 26.9592Z" stroke="#7EE5FF" stroke-width="0.98481"/>
<path opacity="0.244898" d="M201.083 26.7C221.477 33.6256 233.742 55.9255 236.932 86.6349C240.117 117.314 234.219 156.236 218.455 196.116C202.691 235.996 180.065 269.238 156.25 290.748C132.411 312.279 107.506 321.956 87.1114 315.031C66.7172 308.105 54.4529 285.806 51.2638 255.096C48.0779 224.417 53.9756 185.494 69.7394 145.615C85.5031 105.735 108.13 72.4936 131.946 50.9833C155.784 29.4523 180.689 19.7745 201.083 26.7Z" stroke="#7EE5FF" stroke-width="0.98481"/>
<path opacity="0.265306" d="M198.26 26.4981C219.197 33.2464 232.257 55.4117 236.309 86.0329C240.357 116.628 235.384 155.525 220.401 195.459C205.419 235.394 183.281 268.758 159.626 290.424C135.951 312.109 110.872 321.981 89.9345 315.232C68.9974 308.484 55.9368 286.319 51.8852 255.698C47.8371 225.103 52.8111 186.207 67.7934 146.272C82.7756 106.338 104.912 72.9728 128.567 51.3068C152.243 29.6224 177.322 19.75 198.26 26.4981Z" stroke="#7EE5FF" stroke-width="0.98481"/>
<path opacity="0.285714" d="M195.477 26.353C216.955 32.9134 230.805 54.928 235.71 85.4441C240.611 115.937 236.55 154.791 222.338 194.764C208.126 234.737 186.47 268.215 162.97 290.034C139.453 311.868 114.196 321.938 92.718 315.378C71.2403 308.818 57.3907 286.803 52.4857 256.287C47.5844 225.794 51.6444 186.941 65.8563 146.968C80.0683 106.995 101.725 73.5158 125.225 51.6975C148.743 29.8628 174 19.7929 195.477 26.353Z" stroke="#7EE5FF" stroke-width="0.98481"/>
<path opacity="0.306122" d="M192.738 26.2634C214.754 32.6254 229.386 54.4739 235.134 84.8687C240.879 115.244 237.718 154.036 224.264 194.033C210.81 234.029 189.626 267.612 166.274 289.579C142.908 311.56 117.472 321.83 95.4566 315.468C73.4414 309.106 58.8094 287.257 53.0609 256.863C47.3164 226.487 50.4756 187.696 63.9294 147.699C77.3833 107.703 98.5694 74.1194 121.921 52.1523C145.287 30.1711 170.723 19.9014 192.738 26.2634Z" stroke="#7EE5FF" stroke-width="0.98481"/>
<path opacity="0.326531" d="M190.048 26.2281C212.597 32.3827 228.004 54.0509 234.585 84.3092C241.162 114.551 238.89 153.263 226.18 193.268C213.471 233.273 192.746 266.95 169.537 289.062C146.314 311.186 120.697 321.658 98.1475 315.503C75.5978 309.349 60.1905 287.681 53.6097 257.422C47.0326 227.181 49.3049 188.467 62.0141 148.462C74.7233 108.458 95.4486 74.7814 118.658 52.6695C141.88 30.5451 167.498 20.0737 190.048 26.2281Z" stroke="#7EE5FF" stroke-width="0.98481"/>
<path opacity="0.346939" d="M187.409 26.2459C210.489 32.1842 226.662 53.6584 234.063 83.7654C241.461 113.858 240.063 152.476 228.084 192.474C216.105 232.472 195.827 266.232 172.753 288.485C149.668 310.748 123.867 321.423 100.786 315.485C77.7058 309.547 61.5324 288.073 54.131 257.965C46.7332 227.873 48.1323 189.255 60.1111 149.257C72.0899 109.259 92.3667 75.4983 115.441 53.2457C138.527 30.9823 164.328 20.3075 187.409 26.2459Z" stroke="#7EE5FF" stroke-width="0.98481"/>
<path opacity="0.367347" d="M184.825 26.315C208.432 32.0293 225.363 53.2974 233.572 83.2395C241.778 113.169 241.237 151.675 229.973 191.652C218.71 231.63 198.869 265.464 175.922 287.853C152.965 310.251 126.977 321.13 103.369 315.415C79.7619 309.701 62.832 288.434 54.6226 258.492C46.4166 228.562 46.9576 190.057 58.2214 150.079C69.4852 110.102 89.3263 76.2676 112.273 53.8786C135.23 31.4804 161.217 20.6008 184.825 26.315Z" stroke="#7EE5FF" stroke-width="0.98481"/>
<path opacity="0.387755" d="M182.3 26.4341C206.431 31.9175 224.108 52.9665 233.112 82.7301C242.113 112.484 242.414 150.863 231.848 190.806C221.283 230.749 201.865 264.647 179.037 287.168C156.202 309.697 130.025 320.78 105.894 315.297C81.7633 309.813 64.0861 288.765 55.082 259.001C46.0811 229.247 45.7808 190.868 56.3461 150.925C66.9113 110.982 86.3295 77.0836 109.157 54.5628C131.993 32.0344 158.17 20.9507 182.3 26.4341Z" stroke="#7EE5FF" stroke-width="0.98481"/>
<path opacity="0.408163" d="M179.838 26.6012C204.488 31.8476 222.902 52.6672 232.687 82.2403C242.469 111.805 243.592 150.043 233.708 189.938C223.825 229.834 204.816 263.787 182.099 286.434C159.375 309.088 133.006 320.377 108.357 315.13C83.7068 309.884 65.292 289.064 55.5074 259.491C45.7256 229.926 44.6018 191.688 54.4856 151.793C64.3694 111.898 83.3783 77.9447 106.095 55.297C128.819 32.6427 155.189 21.3548 179.838 26.6012Z" stroke="#7EE5FF" stroke-width="0.98481"/>
<path opacity="0.428571" d="M177.441 26.8141C202.605 31.8182 221.746 52.3988 232.297 81.7702C242.845 111.135 244.775 149.218 235.554 189.053C226.333 228.887 207.719 262.885 185.103 285.655C162.482 308.43 135.917 319.921 110.753 314.917C85.5887 309.913 66.4482 289.333 55.8977 259.961C45.3497 230.597 43.42 192.513 52.6405 152.679C61.8611 112.844 80.4759 78.8463 103.091 56.0767C125.712 33.3018 152.277 21.8102 177.441 26.8141Z" stroke="#7EE5FF" stroke-width="0.98481"/>
<path opacity="0.44898" d="M175.113 27.0712C200.787 31.8287 220.643 52.1604 231.944 81.3195C243.243 110.473 245.96 148.39 237.383 188.152C228.807 227.914 210.571 261.947 188.048 284.834C165.52 307.724 138.756 319.417 113.082 314.66C87.4075 309.902 67.5515 289.57 56.2504 260.411C44.9515 231.258 42.235 193.341 50.8113 153.58C59.3877 113.818 77.6234 79.7835 100.147 56.8972C122.675 34.0067 149.439 22.3137 175.113 27.0712Z" stroke="#7EE5FF" stroke-width="0.98481"/>
<path opacity="0.469388" d="M172.856 27.37C199.035 31.8775 219.595 51.9535 231.631 80.8911C243.665 109.824 247.148 147.562 239.196 187.239C231.244 226.916 213.372 260.977 190.93 283.975C168.485 306.976 141.519 318.869 115.339 314.361C89.1588 309.854 68.5992 289.778 56.5634 260.84C44.5294 231.907 41.0466 194.169 48.9984 154.492C56.9503 114.815 74.8225 80.754 97.2641 57.7565C119.709 34.7557 146.676 22.8626 172.856 27.37Z" stroke="#7EE5FF" stroke-width="0.98481"/>
<path opacity="0.489796" d="M170.672 27.7084C197.353 31.9634 218.604 51.7765 231.358 80.4839C244.111 109.188 248.34 146.736 240.993 186.318C233.645 225.9 216.119 259.978 193.749 283.081C171.376 306.187 144.203 318.278 117.522 314.023C90.8411 309.768 69.5905 289.954 56.8362 261.246C44.0835 232.542 39.8537 194.994 47.2015 155.412C54.5493 115.831 72.0755 81.7521 94.4456 58.6492C116.818 35.5438 143.991 23.4535 170.672 27.7084Z" stroke="#7EE5FF" stroke-width="0.98481"/>
<path opacity="0.510204" d="M168.565 28.0842C195.743 32.0853 217.673 51.63 231.129 80.1C244.584 108.568 249.539 145.917 242.774 185.393C236.009 224.869 218.812 258.956 196.502 282.158C174.191 305.363 146.806 317.648 119.629 313.647C92.4518 309.646 70.5219 290.101 57.0659 261.63C43.6112 233.162 38.6558 195.814 45.4207 156.338C52.1857 116.862 69.3828 82.7745 91.6923 59.5719C114.004 36.3676 141.388 24.0832 168.565 28.0842Z" stroke="#7EE5FF" stroke-width="0.98481"/>
<path opacity="0.530612" d="M166.538 28.4951C194.207 32.2419 216.803 51.5138 230.944 79.7402C245.083 107.965 250.742 145.105 244.539 184.466C238.335 223.826 221.449 257.914 199.189 281.21C176.928 304.507 149.327 316.982 121.658 313.236C93.9887 309.489 71.3913 290.217 57.2508 261.991C43.1112 233.766 37.4521 196.625 43.656 157.265C49.8598 117.904 66.7453 83.817 89.0056 60.5208C111.267 37.2233 138.868 24.7485 166.538 28.4951Z" stroke="#7EE5FF" stroke-width="0.98481"/>
<path opacity="0.55102" d="M164.59 28.9387C192.746 32.4313 215.997 51.4279 230.804 79.4054C245.611 107.382 251.953 144.306 246.288 183.541C240.623 222.777 224.03 256.856 201.807 280.24C179.583 303.624 151.762 316.285 123.605 312.792C95.4487 309.299 72.198 290.304 57.3903 262.326C42.5831 234.35 36.2419 197.425 41.907 158.19C47.5721 118.954 64.1652 84.8753 86.3878 61.4919C108.611 38.1077 136.433 25.4461 164.59 28.9387Z" stroke="#7EE5FF" stroke-width="0.98481"/>
<path opacity="0.571429" d="M162.724 29.4126C191.364 32.6525 215.256 51.3704 230.713 79.0947C246.17 106.819 253.17 143.519 248.021 182.622C242.872 221.725 226.553 255.788 204.355 279.252C182.158 302.717 154.11 315.559 125.47 312.319C96.8306 309.079 72.9388 290.361 57.4817 262.637C42.0248 234.913 35.0241 198.211 40.1733 159.108C45.3226 120.006 61.6416 85.9431 83.8392 62.479C106.037 39.0146 134.085 26.1726 162.724 29.4126Z" stroke="#7EE5FF" stroke-width="0.98481"/>
<path opacity="0.591837" d="M160.943 29.9145C190.062 32.9044 214.582 51.343 230.671 78.8109C246.76 106.279 254.397 142.751 249.74 181.713C245.083 220.675 229.019 254.713 206.834 278.251C184.65 301.789 156.37 314.806 127.251 311.816C98.1325 308.827 73.6123 290.388 57.5236 262.92C41.435 235.452 33.7978 198.98 38.4544 160.018C43.1111 121.056 59.1754 87.0182 81.3602 63.4801C103.545 39.942 131.825 26.9247 160.943 29.9145Z" stroke="#7EE5FF" stroke-width="0.98481"/>
<path opacity="0.612245" d="M159.248 30.4422C188.842 33.1853 213.977 51.3449 230.679 78.5541C247.382 105.764 255.633 142.002 251.445 180.816C247.257 219.63 231.427 253.636 209.242 277.241C187.057 300.846 158.54 314.032 128.946 311.289C99.3527 308.546 74.2175 290.386 57.5153 263.177C40.8129 235.967 32.562 199.729 36.7499 160.915C40.9377 122.101 56.7676 88.0953 78.9527 64.4901C101.138 40.8854 129.655 27.6991 159.248 30.4422Z" stroke="#7EE5FF" stroke-width="0.98481"/>
<path opacity="0.632653" d="M157.64 30.9933C217.754 35.9937 260.627 102.566 253.136 179.936C245.644 257.306 190.668 315.738 130.554 310.738C70.4408 305.737 27.5675 239.165 35.0588 161.796C42.5501 84.4257 97.527 25.9931 157.64 30.9933Z" stroke="#7EE5FF" stroke-width="0.98481"/>
<path opacity="0.653061" d="M156.12 31.5657C217.168 36.0924 261.463 102.031 254.814 179.075C248.164 256.119 193.122 314.692 132.074 310.166C71.026 305.639 26.7306 239.699 33.3805 162.655C40.0305 85.6116 95.0727 27.0392 156.12 31.5657Z" stroke="#7EE5FF" stroke-width="0.98481"/>
<path opacity="0.673469" d="M154.69 32.1571C216.666 36.2233 262.338 101.531 256.48 178.239C250.622 254.947 195.481 313.64 133.505 309.574C71.5289 305.508 25.8562 240.2 31.7141 163.492C37.5721 86.7845 92.7144 28.0911 154.69 32.1571Z" stroke="#7EE5FF" stroke-width="0.98481"/>
<path opacity="0.693878" d="M153.35 32.7655C216.247 36.3858 263.251 101.067 258.135 177.43C253.019 253.792 197.743 312.586 134.845 308.966C71.9477 305.346 24.943 240.665 30.0587 164.302C35.1747 87.9398 90.4519 29.1453 153.35 32.7655Z" stroke="#7EE5FF" stroke-width="0.98481"/>
<path opacity="0.714286" d="M152.099 33.3888C215.914 36.5799 264.205 100.642 259.781 176.651C255.356 252.66 199.909 311.533 136.095 308.342C72.2809 305.151 23.9895 241.09 28.4136 165.081C32.8379 89.0722 88.2852 30.1978 152.099 33.3888Z" stroke="#7EE5FF" stroke-width="0.98481"/>
<path opacity="0.734694" d="M150.94 34.0252C215.666 36.806 265.2 100.258 261.417 175.906C257.633 251.554 201.979 310.486 137.254 307.706C72.5284 304.925 22.9945 241.474 26.7775 165.826C30.5606 90.1773 86.2148 31.2446 150.94 34.0252Z" stroke="#7EE5FF" stroke-width="0.98481"/>
<path opacity="0.755102" d="M149.873 34.6728C215.505 37.064 266.237 99.9179 263.045 175.199C259.852 250.481 203.954 309.449 138.321 307.058C72.689 304.667 21.9572 241.814 25.1496 166.532C28.3422 91.2507 84.2404 32.2818 149.873 34.6728Z" stroke="#7EE5FF" stroke-width="0.98481"/>
<path opacity="0.77551" d="M148.897 35.33C215.432 37.3542 267.318 99.6237 264.665 174.533C262.013 249.443 205.833 308.426 139.298 306.401C72.7621 304.377 20.8762 242.107 23.529 167.197C26.1819 92.2877 82.3615 33.3059 148.897 35.33Z" stroke="#7EE5FF" stroke-width="0.98481"/>
<path opacity="0.795918" d="M148.012 35.9952C215.447 37.6769 268.443 99.3789 266.28 173.912C264.116 248.446 207.617 307.418 140.182 305.736C72.7471 304.054 19.7509 242.352 21.9145 167.818C24.0783 93.2849 80.5773 34.3136 148.012 35.9952Z" stroke="#7EE5FF" stroke-width="0.98481"/>
<path opacity="0.816327" d="M147.219 36.667C215.551 38.0326 269.615 99.1862 267.89 173.34C266.164 247.494 209.307 306.43 140.975 305.064C72.6437 303.698 18.5805 242.546 20.3052 168.392C22.0302 94.2385 78.8871 35.3016 147.219 36.667Z" stroke="#7EE5FF" stroke-width="0.98481"/>
<path opacity="0.836735" d="M146.517 37.344C215.743 38.4217 270.831 99.0468 269.494 172.818C268.157 246.589 210.904 305.465 141.678 304.387C72.4518 303.309 17.3638 242.685 18.7004 168.914C20.0372 95.1426 77.2907 36.2663 146.517 37.344Z" stroke="#7EE5FF" stroke-width="0.98481"/>
<path opacity="0.857143" d="M145.905 38.0251C216.023 38.8449 272.094 98.9636 271.095 172.35C270.097 245.737 212.408 304.525 142.289 303.706C72.1709 302.886 16.1003 242.767 17.0991 169.381C18.0979 95.9941 75.7866 37.2054 145.905 38.0251Z" stroke="#7EE5FF" stroke-width="0.98481"/>
<path opacity="0.877551" d="M145.384 38.7093C216.393 39.3031 273.404 98.9401 272.694 171.94C271.983 244.941 213.821 303.616 142.811 303.022C71.8019 302.428 14.79 242.79 15.5004 169.79C16.2111 96.7897 74.3743 38.1156 145.384 38.7093Z" stroke="#7EE5FF" stroke-width="0.98481"/>
<path opacity="0.897959" d="M144.951 39.3957C216.85 39.7968 274.762 98.9787 274.29 171.592C273.819 244.205 215.143 302.737 143.243 302.335C71.3441 301.934 13.4322 242.752 13.9038 170.139C14.3754 97.526 73.0518 38.9947 144.951 39.3957Z" stroke="#7EE5FF" stroke-width="0.98481"/>
<path opacity="0.918367" d="M144.607 40.0835C217.395 40.3274 276.168 99.082 275.886 171.307C275.604 243.532 216.375 301.892 143.587 301.648C70.7987 301.404 12.0269 242.649 12.3085 170.424C12.5902 98.1991 71.8187 39.8399 144.607 40.0835Z" stroke="#7EE5FF" stroke-width="0.98481"/>
<path opacity="0.938776" d="M144.352 40.7722C218.028 40.8959 277.621 99.2525 277.48 171.089C277.34 242.926 217.521 301.082 143.844 300.958C70.167 300.835 10.574 242.479 10.7141 170.642C10.8543 98.8052 70.6745 40.6488 144.352 40.7722Z" stroke="#7EE5FF" stroke-width="0.98481"/>
<path opacity="0.959184" d="M144.182 41.4614C218.747 41.5033 279.121 99.4927 279.074 170.941C279.028 242.39 218.579 300.311 144.013 300.27C69.4481 300.228 9.07374 242.239 9.12017 170.79C9.16666 99.3417 69.6165 41.4198 144.182 41.4614Z" stroke="#7EE5FF" stroke-width="0.98481"/>
<path opacity="0.979592" d="M144.098 42.1508C219.551 42.151 280.668 99.8056 280.668 170.866C280.668 241.926 219.551 299.58 144.098 299.58C68.644 299.58 7.5264 241.926 7.5264 170.866C7.5264 99.8055 68.644 42.1508 144.098 42.1508Z" stroke="#7EE5FF" stroke-width="0.98481"/>
<path d="M144.098 42.8401C220.439 42.8403 282.262 100.194 282.262 170.866C282.262 241.537 220.44 298.891 144.098 298.891C67.7556 298.891 5.93262 241.537 5.93262 170.866C5.93267 100.194 67.7557 42.8401 144.098 42.8401Z" stroke="#7EE5FF" stroke-width="0.98481"/>
</mask>
<g mask="url(#mask0_38_5)">
<g filter="url(#filter0_f_38_5)">
<ellipse cx="29.2602" cy="76.7301" rx="53.9447" ry="50" fill="#7EE5FF"/>
</g>
<g filter="url(#filter1_f_38_5)">
<ellipse cx="248.276" cy="70.7301" rx="53.9447" ry="50" fill="#7EE5FF"/>
</g>
<g filter="url(#filter2_f_38_5)">
<ellipse cx="187.858" cy="51.7301" rx="53.9447" ry="50" fill="#7EE5FF"/>
</g>
<g filter="url(#filter3_f_38_5)">
<ellipse cx="178.148" cy="285.73" rx="53.9447" ry="50" fill="#7EE5FF"/>
</g>
<g filter="url(#filter4_f_38_5)">
<ellipse cx="57.3115" cy="268.73" rx="53.9447" ry="50" fill="#7EE5FF"/>
</g>
</g>
<g filter="url(#filter5_f_38_5)" style="mix-blend-mode:plus-lighter">
<path d="M185.93 183.027C185.93 208 173.646 226.436 143.853 226.436C105.013 227.792 110.947 207.444 98 180.766C106.092 156.8 114.06 136 143.853 136C173.646 136 202.653 157.705 185.93 183.027Z" fill="#7EE5FF"/>
</g>
<g filter="url(#filter6_f_38_5)" style="mix-blend-mode:plus-lighter">
<path d="M191.187 183.042C191.187 211.74 176.911 232.926 142.288 232.926C97.1499 234.485 104.046 211.102 89 180.444C98.4037 152.903 107.664 129 142.288 129C176.911 129 210.621 153.942 191.187 183.042Z" fill="#7EE5FF"/>
</g>
<defs>
<filter id="filter0_f_38_5" x="-124.684" y="-73.2699" width="307.889" height="300" filterUnits="userSpaceOnUse" color-interpolation-filters="sRGB">
<feFlood flood-opacity="0" result="BackgroundImageFix"/>
<feBlend mode="normal" in="SourceGraphic" in2="BackgroundImageFix" result="shape"/>
<feGaussianBlur stdDeviation="50" result="effect1_foregroundBlur_38_5"/>
</filter>
<filter id="filter1_f_38_5" x="94.3309" y="-79.2699" width="307.889" height="300" filterUnits="userSpaceOnUse" color-interpolation-filters="sRGB">
<feFlood flood-opacity="0" result="BackgroundImageFix"/>
<feBlend mode="normal" in="SourceGraphic" in2="BackgroundImageFix" result="shape"/>
<feGaussianBlur stdDeviation="50" result="effect1_foregroundBlur_38_5"/>
</filter>
<filter id="filter2_f_38_5" x="33.9129" y="-98.2699" width="307.889" height="300" filterUnits="userSpaceOnUse" color-interpolation-filters="sRGB">
<feFlood flood-opacity="0" result="BackgroundImageFix"/>
<feBlend mode="normal" in="SourceGraphic" in2="BackgroundImageFix" result="shape"/>
<feGaussianBlur stdDeviation="50" result="effect1_foregroundBlur_38_5"/>
</filter>
<filter id="filter3_f_38_5" x="24.2029" y="135.73" width="307.889" height="300" filterUnits="userSpaceOnUse" color-interpolation-filters="sRGB">
<feFlood flood-opacity="0" result="BackgroundImageFix"/>
<feBlend mode="normal" in="SourceGraphic" in2="BackgroundImageFix" result="shape"/>
<feGaussianBlur stdDeviation="50" result="effect1_foregroundBlur_38_5"/>
</filter>
<filter id="filter4_f_38_5" x="-96.6332" y="118.73" width="307.889" height="300" filterUnits="userSpaceOnUse" color-interpolation-filters="sRGB">
<feFlood flood-opacity="0" result="BackgroundImageFix"/>
<feBlend mode="normal" in="SourceGraphic" in2="BackgroundImageFix" result="shape"/>
<feGaussianBlur stdDeviation="50" result="effect1_foregroundBlur_38_5"/>
</filter>
<filter id="filter5_f_38_5" x="58.8" y="96.8" width="171.237" height="168.9" filterUnits="userSpaceOnUse" color-interpolation-filters="sRGB">
<feFlood flood-opacity="0" result="BackgroundImageFix"/>
<feBlend mode="normal" in="SourceGraphic" in2="BackgroundImageFix" result="shape"/>
<feGaussianBlur stdDeviation="19.6" result="effect1_foregroundBlur_38_5"/>
</filter>
<filter id="filter6_f_38_5" x="49.8" y="89.8" width="186.289" height="182.4" filterUnits="userSpaceOnUse" color-interpolation-filters="sRGB">
<feFlood flood-opacity="0" result="BackgroundImageFix"/>
<feBlend mode="normal" in="SourceGraphic" in2="BackgroundImageFix" result="shape"/>
<feGaussianBlur stdDeviation="19.6" result="effect1_foregroundBlur_38_5"/>
</filter>
</defs>
</svg>
